<svg width="17" height="16" viewBox="0 0 17 16" fill="none" xmlns="http://www.w3.org/2000/svg">
<path d="M16.2647 14.9597L11.5841 10.3118C12.4719 9.22342 13.0063 7.8398 13.0063 6.33336C13.0063 2.84116 10.1451 0 6.6284 0C3.11167 0 0.25058 2.84116 0.25058 6.33336C0.25058 9.82555 3.1117 12.6667 6.62843 12.6667C8.14546 12.6667 9.53881 12.136 10.6348 11.2545L15.3153 15.9024C15.4465 16.0325 15.659 16.0325 15.7901 15.9024L16.2647 15.4311C16.3958 15.3009 16.3958 15.0898 16.2647 14.9597ZM6.62843 11.3334C3.8519 11.3334 1.59329 9.09052 1.59329 6.33336C1.59329 3.57619 3.8519 1.33335 6.62843 1.33335C9.40497 1.33335 11.6636 3.57619 11.6636 6.33336C11.6636 9.09052 9.40497 11.3334 6.62843 11.3334Z" fill="#5C524B"/>
</svg>
